<?xml version="1.0" encoding="UTF-8" standalone="no"?>
<!DOCTYPE svg PUBLIC "-//W3C//DTD SVG 1.1//EN"
 "http://www.w3.org/Graphics/SVG/1.1/DTD/svg11.dtd">
<!-- Generated by graphviz version 13.1.0 (20250701.0955)
 -->
<!-- Title: interface/driver_tm1640_interface.h Pages: 1 -->
<svg width="377pt" height="176pt"
 viewBox="0.00 0.00 377.00 176.00" xmlns="http://www.w3.org/2000/svg" xmlns:xlink="http://www.w3.org/1999/xlink">
<g id="graph0" class="graph" transform="scale(1 1) rotate(0) translate(4 172)">
<title>interface/driver_tm1640_interface.h</title>
<!-- Node1 -->
<g id="Node000001" class="node">
<title>Node1</title>
<g id="a_Node000001"><a xlink:title="driver tm1640 interface header file">
<polygon fill="#999999" stroke="#666666" points="253.62,-168 135.62,-168 135.62,-136 253.62,-136 253.62,-168"/>
<text xml:space="preserve" text-anchor="start" x="143.62" y="-154.5" font-family="Helvetica,sans-Serif" font-size="10.00">interface/driver_tm1640</text>
<text xml:space="preserve" text-anchor="middle" x="194.62" y="-142.5" font-family="Helvetica,sans-Serif" font-size="10.00">_interface.h</text>
</a>
</g>
</g>
<!-- Node2 -->
<g id="Node000002" class="node">
<title>Node2</title>
<g id="a_Node000002"><a xlink:href="driver__tm1640__basic_8h.html" target="_top" xlink:title="driver tm1640 basic header file">
<polygon fill="white" stroke="#666666" points="117.25,-100 0,-100 0,-68 117.25,-68 117.25,-100"/>
<text xml:space="preserve" text-anchor="start" x="8" y="-86.5" font-family="Helvetica,sans-Serif" font-size="10.00">example/driver_tm1640</text>
<text xml:space="preserve" text-anchor="middle" x="58.62" y="-74.5" font-family="Helvetica,sans-Serif" font-size="10.00">_basic.h</text>
</a>
</g>
</g>
<!-- Node1&#45;&gt;Node2 -->
<g id="edge1_Node000001_Node000002" class="edge">
<title>Node1&#45;&gt;Node2</title>
<g id="a_edge1_Node000001_Node000002"><a xlink:title=" ">
<path fill="none" stroke="#63b8ff" d="M152.6,-130.61C132.51,-120.86 108.86,-109.38 90.31,-100.38"/>
<polygon fill="#63b8ff" stroke="#63b8ff" points="150.85,-133.65 161.38,-134.87 153.91,-127.35 150.85,-133.65"/>
</a>
</g>
</g>
<!-- Node4 -->
<g id="Node000004" class="node">
<title>Node4</title>
<g id="a_Node000004"><a xlink:href="driver__tm1640__interface__template_8c.html" target="_top" xlink:title="driver tm1640 interface template source file">
<polygon fill="white" stroke="#666666" points="253.62,-100 135.62,-100 135.62,-68 253.62,-68 253.62,-100"/>
<text xml:space="preserve" text-anchor="start" x="143.62" y="-86.5" font-family="Helvetica,sans-Serif" font-size="10.00">interface/driver_tm1640</text>
<text xml:space="preserve" text-anchor="middle" x="194.62" y="-74.5" font-family="Helvetica,sans-Serif" font-size="10.00">_interface_template.c</text>
</a>
</g>
</g>
<!-- Node1&#45;&gt;Node4 -->
<g id="edge3_Node000001_Node000004" class="edge">
<title>Node1&#45;&gt;Node4</title>
<g id="a_edge3_Node000001_Node000004"><a xlink:title=" ">
<path fill="none" stroke="#63b8ff" d="M194.62,-124.31C194.62,-116.12 194.62,-107.38 194.62,-100.22"/>
<polygon fill="#63b8ff" stroke="#63b8ff" points="191.13,-124.18 194.63,-134.18 198.13,-124.18 191.13,-124.18"/>
</a>
</g>
</g>
<!-- Node5 -->
<g id="Node000005" class="node">
<title>Node5</title>
<g id="a_Node000005"><a xlink:href="driver__tm1640__write__test_8h.html" target="_top" xlink:title="driver tm1640 write test header file">
<polygon fill="white" stroke="#666666" points="369.12,-100 272.12,-100 272.12,-68 369.12,-68 369.12,-100"/>
<text xml:space="preserve" text-anchor="start" x="280.12" y="-86.5" font-family="Helvetica,sans-Serif" font-size="10.00">test/driver_tm1640</text>
<text xml:space="preserve" text-anchor="middle" x="320.62" y="-74.5" font-family="Helvetica,sans-Serif" font-size="10.00">_write_test.h</text>
</a>
</g>
</g>
<!-- Node1&#45;&gt;Node5 -->
<g id="edge4_Node000001_Node000005" class="edge">
<title>Node1&#45;&gt;Node5</title>
<g id="a_edge4_Node000001_Node000005"><a xlink:title=" ">
<path fill="none" stroke="#63b8ff" d="M234.33,-130.2C252.77,-120.54 274.32,-109.26 291.27,-100.38"/>
<polygon fill="#63b8ff" stroke="#63b8ff" points="232.74,-127.08 225.51,-134.82 235.99,-133.28 232.74,-127.08"/>
</a>
</g>
</g>
<!-- Node3 -->
<g id="Node000003" class="node">
<title>Node3</title>
<g id="a_Node000003"><a xlink:href="driver__tm1640__basic_8c.html" target="_top" xlink:title="driver tm1640 basic source file">
<polygon fill="white" stroke="#666666" points="117.25,-32 0,-32 0,0 117.25,0 117.25,-32"/>
<text xml:space="preserve" text-anchor="start" x="8" y="-18.5" font-family="Helvetica,sans-Serif" font-size="10.00">example/driver_tm1640</text>
<text xml:space="preserve" text-anchor="middle" x="58.62" y="-6.5" font-family="Helvetica,sans-Serif" font-size="10.00">_basic.c</text>
</a>
</g>
</g>
<!-- Node2&#45;&gt;Node3 -->
<g id="edge2_Node000002_Node000003" class="edge">
<title>Node2&#45;&gt;Node3</title>
<g id="a_edge2_Node000002_Node000003"><a xlink:title=" ">
<path fill="none" stroke="#63b8ff" d="M58.62,-56.31C58.62,-48.12 58.62,-39.38 58.62,-32.22"/>
<polygon fill="#63b8ff" stroke="#63b8ff" points="55.13,-56.18 58.63,-66.18 62.13,-56.18 55.13,-56.18"/>
</a>
</g>
</g>
<!-- Node6 -->
<g id="Node000006" class="node">
<title>Node6</title>
<g id="a_Node000006"><a xlink:href="driver__tm1640__write__test_8c.html" target="_top" xlink:title="driver tm1640 write test source file">
<polygon fill="white" stroke="#666666" points="369.12,-32 272.12,-32 272.12,0 369.12,0 369.12,-32"/>
<text xml:space="preserve" text-anchor="start" x="280.12" y="-18.5" font-family="Helvetica,sans-Serif" font-size="10.00">test/driver_tm1640</text>
<text xml:space="preserve" text-anchor="middle" x="320.62" y="-6.5" font-family="Helvetica,sans-Serif" font-size="10.00">_write_test.c</text>
</a>
</g>
</g>
<!-- Node5&#45;&gt;Node6 -->
<g id="edge5_Node000005_Node000006" class="edge">
<title>Node5&#45;&gt;Node6</title>
<g id="a_edge5_Node000005_Node000006"><a xlink:title=" ">
<path fill="none" stroke="#63b8ff" d="M320.62,-56.31C320.62,-48.12 320.62,-39.38 320.62,-32.22"/>
<polygon fill="#63b8ff" stroke="#63b8ff" points="317.13,-56.18 320.63,-66.18 324.13,-56.18 317.13,-56.18"/>
</a>
</g>
</g>
</g>
</svg>
