<?xml version="1.0" encoding="UTF-8" standalone="no"?>
<!DOCTYPE svg PUBLIC "-//W3C//DTD SVG 1.1//EN"
 "http://www.w3.org/Graphics/SVG/1.1/DTD/svg11.dtd">
<!-- Generated by graphviz version 13.1.0 (20250701.0955)
 -->
<!-- Title: tm1640_basic_init Pages: 1 -->
<svg width="277pt" height="682pt"
 viewBox="0.00 0.00 277.00 682.00" xmlns="http://www.w3.org/2000/svg" xmlns:xlink="http://www.w3.org/1999/xlink">
<g id="graph0" class="graph" transform="scale(1 1) rotate(0) translate(4 678)">
<title>tm1640_basic_init</title>
<!-- Node1 -->
<g id="Node000001" class="node">
<title>Node1</title>
<g id="a_Node000001"><a xlink:title="basic example init">
<polygon fill="#999999" stroke="#666666" points="94.75,-353 0,-353 0,-333 94.75,-333 94.75,-353"/>
<text xml:space="preserve" text-anchor="middle" x="47.38" y="-339.5" font-family="Helvetica,sans-Serif" font-size="10.00">tm1640_basic_init</text>
</a>
</g>
</g>
<!-- Node2 -->
<g id="Node000002" class="node">
<title>Node2</title>
<g id="a_Node000002"><a xlink:href="group__tm1640__basic__driver.html#gaaec107cd1a6ee3bee3ad9457ee49f117" target="_top" xlink:title="clear segment">
<polygon fill="white" stroke="#666666" points="258.5,-674 141.25,-674 141.25,-654 258.5,-654 258.5,-674"/>
<text xml:space="preserve" text-anchor="middle" x="199.88" y="-660.5" font-family="Helvetica,sans-Serif" font-size="10.00">tm1640_clear_segment</text>
</a>
</g>
</g>
<!-- Node1&#45;&gt;Node2 -->
<g id="edge1_Node000001_Node000002" class="edge">
<title>Node1&#45;&gt;Node2</title>
<g id="a_edge1_Node000001_Node000002"><a xlink:title=" ">
<path fill="none" stroke="#63b8ff" d="M47.84,-353.33C46.2,-395.91 45.87,-559.64 130.75,-645 131.49,-645.74 132.25,-646.46 133.04,-647.14"/>
<polygon fill="#63b8ff" stroke="#63b8ff" points="130.82,-649.86 141.04,-652.65 134.79,-644.1 130.82,-649.86"/>
</a>
</g>
</g>
<!-- Node3 -->
<g id="Node000003" class="node">
<title>Node3</title>
<g id="a_Node000003"><a xlink:href="group__tm1640__basic__driver.html#ga02e691d4a60c4a54fd2053ccbfd31a97" target="_top" xlink:title="close the chip">
<polygon fill="white" stroke="#666666" points="238.25,-636 161.5,-636 161.5,-616 238.25,-616 238.25,-636"/>
<text xml:space="preserve" text-anchor="middle" x="199.88" y="-622.5" font-family="Helvetica,sans-Serif" font-size="10.00">tm1640_deinit</text>
</a>
</g>
</g>
<!-- Node1&#45;&gt;Node3 -->
<g id="edge2_Node000001_Node000003" class="edge">
<title>Node1&#45;&gt;Node3</title>
<g id="a_edge2_Node000001_Node000003"><a xlink:title=" ">
<path fill="none" stroke="#63b8ff" d="M48.31,-353.36C48.65,-392.64 55.28,-533.79 130.75,-607 136.26,-612.34 143.13,-616.21 150.38,-619"/>
<polygon fill="#63b8ff" stroke="#63b8ff" points="149.13,-622.27 159.71,-621.92 151.22,-615.59 149.13,-622.27"/>
</a>
</g>
</g>
<!-- Node4 -->
<g id="Node000004" class="node">
<title>Node4</title>
<g id="a_Node000004"><a xlink:href="group__tm1640__basic__driver.html#ga8314a7f22aaf105d2ba95f2ad04f4dcc" target="_top" xlink:title="initialize the chip">
<polygon fill="white" stroke="#666666" points="233,-598 166.75,-598 166.75,-578 233,-578 233,-598"/>
<text xml:space="preserve" text-anchor="middle" x="199.88" y="-584.5" font-family="Helvetica,sans-Serif" font-size="10.00">tm1640_init</text>
</a>
</g>
</g>
<!-- Node1&#45;&gt;Node4 -->
<g id="edge3_Node000001_Node000004" class="edge">
<title>Node1&#45;&gt;Node4</title>
<g id="a_edge3_Node000001_Node000004"><a xlink:title=" ">
<path fill="none" stroke="#63b8ff" d="M48.93,-353.34C51.42,-388.96 64.54,-507.74 130.75,-569 137.61,-575.34 146.4,-579.6 155.38,-582.44"/>
<polygon fill="#63b8ff" stroke="#63b8ff" points="154.28,-585.77 164.84,-584.87 156.03,-578.99 154.28,-585.77"/>
</a>
</g>
</g>
<!-- Node5 -->
<g id="Node000005" class="node">
<title>Node5</title>
<g id="a_Node000005"><a xlink:href="group__tm1640__interface__driver.html#ga6eb4d13ea118e5b6a129c088e95aa011" target="_top" xlink:title="interface print format data">
<polygon fill="white" stroke="#666666" points="261.12,-560 138.62,-560 138.62,-528 261.12,-528 261.12,-560"/>
<text xml:space="preserve" text-anchor="start" x="146.62" y="-546.5" font-family="Helvetica,sans-Serif" font-size="10.00">tm1640_interface_debug</text>
<text xml:space="preserve" text-anchor="middle" x="199.88" y="-534.5" font-family="Helvetica,sans-Serif" font-size="10.00">_print</text>
</a>
</g>
</g>
<!-- Node1&#45;&gt;Node5 -->
<g id="edge4_Node000001_Node000005" class="edge">
<title>Node1&#45;&gt;Node5</title>
<g id="a_edge4_Node000001_Node000005"><a xlink:title=" ">
<path fill="none" stroke="#63b8ff" d="M50.34,-353.37C56.56,-383.35 78.55,-471.1 130.75,-519 131.52,-519.71 132.32,-520.4 133.13,-521.07"/>
<polygon fill="#63b8ff" stroke="#63b8ff" points="131.02,-523.86 141.24,-526.67 135,-518.1 131.02,-523.86"/>
</a>
</g>
</g>
<!-- Node6 -->
<g id="Node000006" class="node">
<title>Node6</title>
<g id="a_Node000006"><a xlink:href="group__tm1640__interface__driver.html#ga786de3fd686638f039644fe6a819bc21" target="_top" xlink:title="interface delay ms">
<polygon fill="white" stroke="#666666" points="269,-510 130.75,-510 130.75,-490 269,-490 269,-510"/>
<text xml:space="preserve" text-anchor="middle" x="199.88" y="-496.5" font-family="Helvetica,sans-Serif" font-size="10.00">tm1640_interface_delay_ms</text>
</a>
</g>
</g>
<!-- Node1&#45;&gt;Node6 -->
<g id="edge5_Node000001_Node000006" class="edge">
<title>Node1&#45;&gt;Node6</title>
<g id="a_edge5_Node000001_Node000006"><a xlink:title=" ">
<path fill="none" stroke="#63b8ff" d="M51.59,-353.49C60.07,-379.33 85.52,-446.45 130.75,-481 132.29,-482.18 133.91,-483.28 135.57,-484.32"/>
<polygon fill="#63b8ff" stroke="#63b8ff" points="133.79,-487.34 144.28,-488.84 137.02,-481.13 133.79,-487.34"/>
</a>
</g>
</g>
<!-- Node7 -->
<g id="Node000007" class="node">
<title>Node7</title>
<g id="a_Node000007"><a xlink:href="group__tm1640__interface__driver.html#gaa94604017e047bdce675a32061faa639" target="_top" xlink:title="interface delay us">
<polygon fill="white" stroke="#666666" points="267.5,-472 132.25,-472 132.25,-452 267.5,-452 267.5,-472"/>
<text xml:space="preserve" text-anchor="middle" x="199.88" y="-458.5" font-family="Helvetica,sans-Serif" font-size="10.00">tm1640_interface_delay_us</text>
</a>
</g>
</g>
<!-- Node1&#45;&gt;Node7 -->
<g id="edge6_Node000001_Node000007" class="edge">
<title>Node1&#45;&gt;Node7</title>
<g id="a_edge6_Node000001_Node000007"><a xlink:title=" ">
<path fill="none" stroke="#63b8ff" d="M53.92,-353.25C65.43,-373.58 93.99,-419.08 130.75,-443 132.88,-444.39 135.12,-445.67 137.42,-446.87"/>
<polygon fill="#63b8ff" stroke="#63b8ff" points="135.94,-450.04 146.5,-450.92 138.79,-443.65 135.94,-450.04"/>
</a>
</g>
</g>
<!-- Node8 -->
<g id="Node000008" class="node">
<title>Node8</title>
<g id="a_Node000008"><a xlink:href="group__tm1640__interface__driver.html#ga4866476368993952fc0143e9ff190b00" target="_top" xlink:title="interface din gpio deinit">
<polygon fill="white" stroke="#666666" points="254.38,-434 145.38,-434 145.38,-402 254.38,-402 254.38,-434"/>
<text xml:space="preserve" text-anchor="start" x="153.38" y="-420.5" font-family="Helvetica,sans-Serif" font-size="10.00">tm1640_interface_din</text>
<text xml:space="preserve" text-anchor="middle" x="199.88" y="-408.5" font-family="Helvetica,sans-Serif" font-size="10.00">_gpio_deinit</text>
</a>
</g>
</g>
<!-- Node1&#45;&gt;Node8 -->
<g id="edge7_Node000001_Node000008" class="edge">
<title>Node1&#45;&gt;Node8</title>
<g id="a_edge7_Node000001_Node000008"><a xlink:title=" ">
<path fill="none" stroke="#63b8ff" d="M63.36,-353.32C79.5,-364.14 106.18,-381.17 130.75,-393 133.68,-394.41 136.7,-395.79 139.78,-397.13"/>
<polygon fill="#63b8ff" stroke="#63b8ff" points="138.4,-400.34 148.98,-400.94 141.09,-393.88 138.4,-400.34"/>
</a>
</g>
</g>
<!-- Node9 -->
<g id="Node000009" class="node">
<title>Node9</title>
<g id="a_Node000009"><a xlink:href="group__tm1640__interface__driver.html#ga273a8aeea8745403332ed0c0404a0fde" target="_top" xlink:title="interface din gpio init">
<polygon fill="white" stroke="#666666" points="254.38,-384 145.38,-384 145.38,-352 254.38,-352 254.38,-384"/>
<text xml:space="preserve" text-anchor="start" x="153.38" y="-370.5" font-family="Helvetica,sans-Serif" font-size="10.00">tm1640_interface_din</text>
<text xml:space="preserve" text-anchor="middle" x="199.88" y="-358.5" font-family="Helvetica,sans-Serif" font-size="10.00">_gpio_init</text>
</a>
</g>
</g>
<!-- Node1&#45;&gt;Node9 -->
<g id="edge8_Node000001_Node000009" class="edge">
<title>Node1&#45;&gt;Node9</title>
<g id="a_edge8_Node000001_Node000009"><a xlink:title=" ">
<path fill="none" stroke="#63b8ff" d="M95.17,-350.77C107.38,-352.8 120.77,-355.03 133.75,-357.18"/>
<polygon fill="#63b8ff" stroke="#63b8ff" points="133.07,-360.62 143.51,-358.8 134.22,-353.71 133.07,-360.62"/>
</a>
</g>
</g>
<!-- Node10 -->
<g id="Node000010" class="node">
<title>Node10</title>
<g id="a_Node000010"><a xlink:href="group__tm1640__interface__driver.html#ga0c923e6cb0a95ac180d8d7761499f72c" target="_top" xlink:title="interface din gpio write">
<polygon fill="white" stroke="#666666" points="254.38,-334 145.38,-334 145.38,-302 254.38,-302 254.38,-334"/>
<text xml:space="preserve" text-anchor="start" x="153.38" y="-320.5" font-family="Helvetica,sans-Serif" font-size="10.00">tm1640_interface_din</text>
<text xml:space="preserve" text-anchor="middle" x="199.88" y="-308.5" font-family="Helvetica,sans-Serif" font-size="10.00">_gpio_write</text>
</a>
</g>
</g>
<!-- Node1&#45;&gt;Node10 -->
<g id="edge9_Node000001_Node000010" class="edge">
<title>Node1&#45;&gt;Node10</title>
<g id="a_edge9_Node000001_Node000010"><a xlink:title=" ">
<path fill="none" stroke="#63b8ff" d="M95.17,-335.23C107.38,-333.2 120.77,-330.97 133.75,-328.82"/>
<polygon fill="#63b8ff" stroke="#63b8ff" points="134.22,-332.29 143.51,-327.2 133.07,-325.38 134.22,-332.29"/>
</a>
</g>
</g>
<!-- Node11 -->
<g id="Node000011" class="node">
<title>Node11</title>
<g id="a_Node000011"><a xlink:href="group__tm1640__interface__driver.html#ga0e23841c4b485582ebf640722b3356ab" target="_top" xlink:title="interface sclk gpio deinit">
<polygon fill="white" stroke="#666666" points="257,-284 142.75,-284 142.75,-252 257,-252 257,-284"/>
<text xml:space="preserve" text-anchor="start" x="150.75" y="-270.5" font-family="Helvetica,sans-Serif" font-size="10.00">tm1640_interface_sclk</text>
<text xml:space="preserve" text-anchor="middle" x="199.88" y="-258.5" font-family="Helvetica,sans-Serif" font-size="10.00">_gpio_deinit</text>
</a>
</g>
</g>
<!-- Node1&#45;&gt;Node11 -->
<g id="edge10_Node000001_Node000011" class="edge">
<title>Node1&#45;&gt;Node11</title>
<g id="a_edge10_Node000001_Node000011"><a xlink:title=" ">
<path fill="none" stroke="#63b8ff" d="M63.36,-332.68C79.5,-321.86 106.18,-304.83 130.75,-293 133.68,-291.59 136.7,-290.21 139.78,-288.87"/>
<polygon fill="#63b8ff" stroke="#63b8ff" points="141.09,-292.12 148.98,-285.06 138.4,-285.66 141.09,-292.12"/>
</a>
</g>
</g>
<!-- Node12 -->
<g id="Node000012" class="node">
<title>Node12</title>
<g id="a_Node000012"><a xlink:href="group__tm1640__interface__driver.html#ga1c38c41175c2b0fbaca4e039343d011a" target="_top" xlink:title="interface sclk gpio init">
<polygon fill="white" stroke="#666666" points="257,-234 142.75,-234 142.75,-202 257,-202 257,-234"/>
<text xml:space="preserve" text-anchor="start" x="150.75" y="-220.5" font-family="Helvetica,sans-Serif" font-size="10.00">tm1640_interface_sclk</text>
<text xml:space="preserve" text-anchor="middle" x="199.88" y="-208.5" font-family="Helvetica,sans-Serif" font-size="10.00">_gpio_init</text>
</a>
</g>
</g>
<!-- Node1&#45;&gt;Node12 -->
<g id="edge11_Node000001_Node000012" class="edge">
<title>Node1&#45;&gt;Node12</title>
<g id="a_edge11_Node000001_Node000012"><a xlink:title=" ">
<path fill="none" stroke="#63b8ff" d="M54.27,-332.69C66.2,-312.65 95.15,-268.24 130.75,-243 132.3,-241.9 133.91,-240.84 135.56,-239.82"/>
<polygon fill="#63b8ff" stroke="#63b8ff" points="136.98,-243.04 144.07,-235.17 133.62,-236.9 136.98,-243.04"/>
</a>
</g>
</g>
<!-- Node13 -->
<g id="Node000013" class="node">
<title>Node13</title>
<g id="a_Node000013"><a xlink:href="group__tm1640__interface__driver.html#ga1f3ae1405f9f988232eaac6843ef7cf4" target="_top" xlink:title="interface sclk gpio write">
<polygon fill="white" stroke="#666666" points="257,-184 142.75,-184 142.75,-152 257,-152 257,-184"/>
<text xml:space="preserve" text-anchor="start" x="150.75" y="-170.5" font-family="Helvetica,sans-Serif" font-size="10.00">tm1640_interface_sclk</text>
<text xml:space="preserve" text-anchor="middle" x="199.88" y="-158.5" font-family="Helvetica,sans-Serif" font-size="10.00">_gpio_write</text>
</a>
</g>
</g>
<!-- Node1&#45;&gt;Node13 -->
<g id="edge12_Node000001_Node000013" class="edge">
<title>Node1&#45;&gt;Node13</title>
<g id="a_edge12_Node000001_Node000013"><a xlink:title=" ">
<path fill="none" stroke="#63b8ff" d="M51.26,-332.64C59.28,-305.71 84.34,-232.9 130.75,-193 131.82,-192.08 132.94,-191.18 134.08,-190.33"/>
<polygon fill="#63b8ff" stroke="#63b8ff" points="135.59,-193.52 142.11,-185.16 131.8,-187.63 135.59,-193.52"/>
</a>
</g>
</g>
<!-- Node14 -->
<g id="Node000014" class="node">
<title>Node14</title>
<g id="a_Node000014"><a xlink:href="group__tm1640__basic__driver.html#gad65f43b4ebceb302d780557217ceb7ff" target="_top" xlink:title="set address mode">
<polygon fill="white" stroke="#666666" points="267.88,-134 131.88,-134 131.88,-114 267.88,-114 267.88,-134"/>
<text xml:space="preserve" text-anchor="middle" x="199.88" y="-120.5" font-family="Helvetica,sans-Serif" font-size="10.00">tm1640_set_address_mode</text>
</a>
</g>
</g>
<!-- Node1&#45;&gt;Node14 -->
<g id="edge13_Node000001_Node000014" class="edge">
<title>Node1&#45;&gt;Node14</title>
<g id="a_edge13_Node000001_Node000014"><a xlink:title=" ">
<path fill="none" stroke="#63b8ff" d="M49.45,-332.92C53.47,-300.26 70.66,-196.35 130.75,-143 131.83,-142.04 132.96,-141.12 134.13,-140.25"/>
<polygon fill="#63b8ff" stroke="#63b8ff" points="135.69,-143.4 142.44,-135.24 132.07,-137.41 135.69,-143.4"/>
</a>
</g>
</g>
<!-- Node15 -->
<g id="Node000015" class="node">
<title>Node15</title>
<g id="a_Node000015"><a xlink:href="group__tm1640__basic__driver.html#gaff7325db0192414ff48cbef750f10e4d" target="_top" xlink:title="enable or disable display">
<polygon fill="white" stroke="#666666" points="251.38,-96 148.38,-96 148.38,-76 251.38,-76 251.38,-96"/>
<text xml:space="preserve" text-anchor="middle" x="199.88" y="-82.5" font-family="Helvetica,sans-Serif" font-size="10.00">tm1640_set_display</text>
</a>
</g>
</g>
<!-- Node1&#45;&gt;Node15 -->
<g id="edge14_Node000001_Node000015" class="edge">
<title>Node1&#45;&gt;Node15</title>
<g id="a_edge14_Node000001_Node000015"><a xlink:title=" ">
<path fill="none" stroke="#63b8ff" d="M48.72,-332.64C50.5,-295.81 61.64,-170.01 130.75,-105 132.9,-102.98 135.25,-101.16 137.74,-99.54"/>
<polygon fill="#63b8ff" stroke="#63b8ff" points="139.37,-102.64 146.59,-94.89 136.11,-96.45 139.37,-102.64"/>
</a>
</g>
</g>
<!-- Node16 -->
<g id="Node000016" class="node">
<title>Node16</title>
<g id="a_Node000016"><a xlink:href="group__tm1640__basic__driver.html#ga9c6737db536b23c4d3ef9711187e6cc5" target="_top" xlink:title="set pulse width">
<polygon fill="white" stroke="#666666" points="261.88,-58 137.88,-58 137.88,-38 261.88,-38 261.88,-58"/>
<text xml:space="preserve" text-anchor="middle" x="199.88" y="-44.5" font-family="Helvetica,sans-Serif" font-size="10.00">tm1640_set_pulse_width</text>
</a>
</g>
</g>
<!-- Node1&#45;&gt;Node16 -->
<g id="edge15_Node000001_Node000016" class="edge">
<title>Node1&#45;&gt;Node16</title>
<g id="a_edge15_Node000001_Node000016"><a xlink:title=" ">
<path fill="none" stroke="#63b8ff" d="M48.15,-332.73C47.84,-292.51 52.26,-144.08 130.75,-67 131.63,-66.14 132.54,-65.32 133.48,-64.53"/>
<polygon fill="#63b8ff" stroke="#63b8ff" points="135.05,-67.69 141.44,-59.24 131.18,-61.86 135.05,-67.69"/>
</a>
</g>
</g>
<!-- Node17 -->
<g id="Node000017" class="node">
<title>Node17</title>
<g id="a_Node000017"><a xlink:href="group__tm1640__basic__driver.html#gac755b78666940d30e42b15238d7073ee" target="_top" xlink:title="enable or disable test mode">
<polygon fill="white" stroke="#666666" points="258.88,-20 140.88,-20 140.88,0 258.88,0 258.88,-20"/>
<text xml:space="preserve" text-anchor="middle" x="199.88" y="-6.5" font-family="Helvetica,sans-Serif" font-size="10.00">tm1640_set_test_mode</text>
</a>
</g>
</g>
<!-- Node1&#45;&gt;Node17 -->
<g id="edge16_Node000001_Node000017" class="edge">
<title>Node1&#45;&gt;Node17</title>
<g id="a_edge16_Node000001_Node000017"><a xlink:title=" ">
<path fill="none" stroke="#63b8ff" d="M49.71,-332.62C56.21,-283.43 86.17,-74.28 130.75,-29 131.48,-28.25 132.25,-27.54 133.03,-26.85"/>
<polygon fill="#63b8ff" stroke="#63b8ff" points="134.78,-29.89 141.01,-21.32 130.8,-24.14 134.78,-29.89"/>
</a>
</g>
</g>
</g>
</svg>
